Coordinates
version=1
nRows=32
nColumns=12
inDegrees=yes

Units are S.I. units (second, meters, Newtons, ...)
Angles are in degrees

endheader
time	SC_y	SC_z	SC_x	AC_y	AC_z	AC_x	GH_y	GH_z	GH_yy	EL_x	PS_y
       0.0              -42.26          37.49          79.02           57.5         -7.358          -14.0          31.42         -8.183          161.0          55.28          130.6
   0.00678              -42.26          37.48          79.01           57.5         -7.356          -14.0          31.43          -8.17          161.0          55.28          130.6
   0.01356              -42.25          37.48           79.0           57.5         -7.354          -14.0          31.44         -8.156          161.0          55.29          130.6
   0.02034              -42.25          37.47          78.99           57.5         -7.351          -14.0          31.45         -8.142          161.0           55.3          130.6
   0.02712              -42.25          37.46          78.99           57.5         -7.348          -14.0          31.46         -8.126          161.0          55.31          130.6
    0.0339              -42.24          37.46          78.98           57.5         -7.345          -14.0          31.47          -8.11          161.0          55.32          130.5
   0.04068              -42.24          37.45          78.97           57.5         -7.342          -14.0          31.49         -8.093          161.0          55.33          130.5
   0.04746              -42.23          37.44          78.96           57.5         -7.339          -14.0           31.5         -8.074          161.0          55.34          130.5
   0.05424              -42.23          37.44          78.95           57.5         -7.335          -14.0          31.52         -8.054          161.0          55.35          130.5
   0.06102              -42.22          37.43          78.93           57.5         -7.331          -14.0          31.53         -8.032          161.0          55.37          130.4
    0.0678              -42.21          37.42          78.92           57.5         -7.327          -14.0          31.55         -8.009          161.0          55.38          130.4
   0.07458              -42.21          37.41          78.91           57.5         -7.322          -14.0          31.57         -7.985          161.0          55.39          130.4
   0.08136               -42.2           37.4          78.89           57.5         -7.317          -14.0          31.59         -7.958          161.0          55.41          130.3
   0.08815              -42.19          37.39          78.88           57.5         -7.312          -14.0          31.61         -7.929          161.0          55.43          130.3
   0.09493              -42.18          37.37          78.86           57.5         -7.306          -14.0          31.64         -7.898          161.0          55.45          130.2
    0.1017              -42.17          37.36          78.84           57.5           -7.3          -14.0          31.66         -7.864          161.0          55.47          130.2
    0.1085              -42.16          37.35          78.82           57.5         -7.293          -14.0          31.69         -7.827          161.0          55.49          130.2
    0.1153              -42.15          37.33           78.8           57.5         -7.286         -14.01          31.72         -7.787          160.9          55.51          130.1
     0.122              -42.14          37.31          78.77           57.5         -7.278         -14.01          31.76         -7.743          160.9          55.54          130.0
    0.1288              -42.13           37.3          78.75           57.5         -7.269         -14.01          31.79         -7.695          160.9          55.57          130.0
    0.1356              -42.11          37.27          78.72          57.51          -7.26         -14.01          31.83         -7.642          160.9           55.6          129.9
    0.1424               -42.1          37.25          78.68          57.51         -7.249         -14.01          31.88         -7.584          160.9          55.63          129.8
    0.1492              -42.08          37.23          78.65          57.51         -7.237         -14.01          31.93          -7.52          160.9          55.67          129.7
    0.1559              -42.06           37.2          78.61          57.51         -7.224         -14.01          31.98         -7.449          160.9          55.71          129.6
    0.1627              -42.04          37.17          78.57          57.51          -7.21         -14.01          32.04          -7.37          160.9          55.76          129.5
    0.1695              -42.01          37.13          78.52          57.51         -7.194         -14.01          32.11         -7.282          160.8          55.81          129.4
    0.1763              -41.98          37.09          78.46          57.51         -7.176         -14.02          32.19         -7.183          160.8          55.87          129.3
    0.1831              -41.95          37.05           78.4          57.51         -7.156         -14.02          32.27         -7.072          160.8          55.93          129.1
    0.1899              -41.92           37.0          78.33          57.51         -7.133         -14.02          32.37         -6.947          160.8          56.01          129.0
    0.1966              -41.88          36.95          78.25          57.52         -7.107         -14.02          32.48         -6.805          160.7          56.09          128.8
    0.2034              -41.83          36.88          78.16          57.52         -7.077         -14.03          32.61         -6.642          160.7          56.19          128.6
    0.2102              -41.78          36.81          78.06          57.52         -7.043         -14.03          32.75         -6.456          160.7           56.3          128.3
